# xmcd
#
# Track frame offsets:
#	150
#	18275
#	37616
#	56506
#	76867
#	94168
#	113881
#	130492
#	153343
#	174012
#
# Disc length: 2620 seconds
#
# Revision: 1
# Processed by: cddbd v1.5.2PL0 Copyright (c) Steve Scherf et al.
# Submitted via: Jack! The Knife
#
DISCID=680a3a0a
DTITLE=Litfiba - Grande Nazione
DYEAR=2012
DGENRE=Rock
TTITLE0=Fiesta Tosta
TTITLE1=Squalo
TTITLE2=Elettrica
TTITLE3=Tra Te E Me
TTITLE4=Tutti Buoni
TTITLE5=Luna Dark
TTITLE6=Anarcoide
TTITLE7=Grande Nazione
TTITLE8=Brado
TTITLE9=La Mia Valigia
EXTD=Piero Pelù and Ghigo Renzulli
EXTT0=Pelù \ Renzulli
EXTT1=Pelù \ Renzulli
EXTT2=Pelù \ Renzulli
EXTT3=Pelù \ Renzulli
EXTT4=Pelù \ Renzulli
EXTT5=Pelù \ Renzulli
EXTT6=Pelù \ Renzulli
EXTT7=Pelù \ Renzulli
EXTT8=Pelù \ Renzulli
EXTT9=Pelù \ Renzulli
PLAYORDER=
